<svg width="34" height="31" viewBox="0 0 34 31" fill="none" xmlns="http://www.w3.org/2000/svg">
  <path d="M30.3128 20.0228C32.0562 20.0228 33.4694 18.6095 33.4694 16.8662C33.4694 15.1229 32.0562 13.7096 30.3128 13.7096C28.5695 13.7096 27.1562 15.1229 27.1562 16.8662C27.1562 18.6095 28.5695 20.0228 30.3128 20.0228Z" fill="#EC917C"/>
  <path d="M31.0707 13.8025C30.5997 14.3545 30.3127 15.0685 30.3127 15.8501C30.3127 17.3321 31.3357 18.5711 32.7114 18.9104C33.1824 18.3585 33.4693 17.6444 33.4693 16.8629C33.4693 15.3808 32.4464 14.1418 31.0707 13.8025Z" fill="#F5C09C"/>
  <path d="M30.1439 18.745C31.1815 18.745 32.0227 17.9038 32.0227 16.8662C32.0227 15.8286 31.1815 14.9874 30.1439 14.9874C29.1063 14.9874 28.2651 15.8286 28.2651 16.8662C28.2651 17.9038 29.1063 18.745 30.1439 18.745Z" fill="#EE425E"/>
  <path d="M26.4303 11.3649C26.2311 10.9159 26.3729 10.4011 26.7409 10.1411C26.6903 10.1546 26.6396 10.1715 26.589 10.1951C26.118 10.4129 25.9172 10.9969 26.14 11.5C26.3628 12.003 26.9249 12.2343 27.3959 12.0148C27.4448 11.9912 27.4921 11.9642 27.5343 11.9338C27.1005 12.0452 26.6295 11.8156 26.4303 11.3649Z" fill="black"/>
  <path d="M26.4302 11.3649C26.6294 11.814 27.1003 12.0452 27.5342 11.9338C27.9022 11.6739 28.044 11.1607 27.8448 10.71C27.6456 10.2593 27.1746 10.0297 26.7408 10.1411C26.3728 10.4011 26.231 10.9142 26.4302 11.3649Z" fill="#0A3441"/>
  <path d="M23.7041 8.82783C24.1767 9.04559 24.7152 8.90211 24.9836 8.51217C24.9701 8.56619 24.9532 8.62021 24.9296 8.67422C24.7051 9.17388 24.0957 9.3815 23.5657 9.13843C23.0373 8.89535 22.7892 8.29104 23.0137 7.79139C23.0373 7.73906 23.066 7.69011 23.0981 7.64453C22.985 8.10705 23.2314 8.61177 23.7058 8.82952L23.7041 8.82783Z" fill="black"/>
  <path d="M23.7041 8.82783C23.2315 8.61008 22.9833 8.10536 23.0964 7.64284C23.3648 7.25291 23.9033 7.10943 24.376 7.32718C24.8486 7.54494 25.0967 8.04965 24.9836 8.51217C24.7153 8.9021 24.1768 9.04559 23.7041 8.82783Z" fill="#0A3441"/>
  <path d="M24.5988 10.2357C23.9118 9.59765 23.8038 8.56965 24.2983 7.80835C24.2139 7.87418 24.1312 7.94508 24.057 8.0261C23.3446 8.79753 23.3902 9.9994 24.1599 10.7117C24.928 11.4241 26.1282 11.3785 26.8405 10.6071C26.9165 10.5261 26.9806 10.4383 27.0397 10.3488C26.3206 10.9008 25.2875 10.8721 24.6005 10.2357H24.5988Z" fill="black"/>
  <path d="M24.6223 10.2576C25.3229 10.8805 26.3542 10.8889 27.0632 10.3217C27.5409 9.55032 27.4143 8.524 26.7138 7.90112C26.0133 7.27824 24.9819 7.2698 24.2729 7.83698C23.7952 8.6084 23.9218 9.63472 24.6223 10.2576Z" fill="#0A3441"/>
  <path d="M7.69501 10.4855C7.852 10.131 7.74059 9.72586 7.45025 9.52161C7.49076 9.53173 7.53128 9.54524 7.5701 9.56381C7.94146 9.73598 8.10014 10.1951 7.92458 10.5918C7.74903 10.9885 7.30677 11.1691 6.93541 10.9986C6.89658 10.9801 6.85944 10.9581 6.82568 10.9345C7.16835 11.0223 7.53803 10.8399 7.69501 10.4872V10.4855Z" fill="black"/>
  <path d="M7.6949 10.4854C7.53792 10.8399 7.16824 11.0222 6.82557 10.9328C6.53523 10.7285 6.42382 10.3234 6.58081 9.9689C6.73779 9.61442 7.10747 9.43211 7.45014 9.52158C7.74048 9.72583 7.85189 10.131 7.6949 10.4854Z" fill="#0A3441"/>
  <path d="M9.84222 8.48853C9.46917 8.66071 9.04548 8.54761 8.83447 8.24039C8.8446 8.28259 8.8581 8.32648 8.87667 8.36699C9.05392 8.7603 9.53331 8.92404 9.95025 8.7316C10.3672 8.53917 10.5613 8.06484 10.3858 7.67153C10.3672 7.62933 10.3452 7.59219 10.3199 7.55505C10.4094 7.91967 10.2153 8.31635 9.84222 8.48853Z" fill="black"/>
  <path d="M9.84209 8.48858C10.2151 8.3164 10.4093 7.91803 10.3198 7.5551C10.1088 7.24788 9.6851 7.13478 9.31205 7.30696C8.939 7.47914 8.74488 7.87751 8.83434 8.24044C9.04534 8.54766 9.46904 8.66075 9.84209 8.48858Z" fill="#0A3441"/>
  <path d="M9.13823 9.59758C9.68008 9.09455 9.76449 8.28431 9.37455 7.68506C9.44207 7.7357 9.50622 7.79309 9.5653 7.85724C10.1257 8.46492 10.0903 9.4119 9.48427 9.97401C8.87828 10.5361 7.93298 10.499 7.37256 9.8913C7.31348 9.82716 7.26284 9.75795 7.21558 9.68705C7.78275 10.1226 8.59469 10.0989 9.13654 9.59758H9.13823Z" fill="black"/>
  <path d="M9.11956 9.61451C8.56758 10.1057 7.75564 10.1108 7.19691 9.66515C6.82048 9.05746 6.92176 8.2489 7.47206 7.75769C8.02404 7.26647 8.83598 7.26141 9.39471 7.70705C9.77114 8.31473 9.66986 9.1233 9.11956 9.61451Z" fill="#0A3441"/>
  <path d="M3.8615 19.9974C5.59086 19.9974 6.99278 18.5955 6.99278 16.8661C6.99278 15.1368 5.59086 13.7349 3.8615 13.7349C2.13215 13.7349 0.730225 15.1368 0.730225 16.8661C0.730225 18.5955 2.13215 19.9974 3.8615 19.9974Z" fill="#EC917C"/>
  <path d="M3.11033 13.826C3.57791 14.373 3.8615 15.0819 3.8615 15.8584C3.8615 17.3287 2.847 18.5576 1.48139 18.8952C1.01381 18.3483 0.730225 17.6393 0.730225 16.8628C0.730225 15.3925 1.74472 14.1637 3.11033 13.826Z" fill="#F5C09C"/>
  <path d="M4.02861 18.7298C5.05784 18.7298 5.89219 17.8955 5.89219 16.8663C5.89219 15.837 5.05784 15.0027 4.02861 15.0027C2.99939 15.0027 2.16504 15.837 2.16504 16.8663C2.16504 17.8955 2.99939 18.7298 4.02861 18.7298Z" fill="#EE425E"/>
  <path d="M9.51631 8.49024L12.8316 6.67562C12.3269 5.75396 11.1756 5.41298 10.2607 5.91432C9.34582 6.41567 9.01159 7.56858 9.51631 8.49024Z" fill="#0A3441"/>
  <path d="M23.5605 8.21008C24.0636 7.46736 23.8728 6.45792 23.1335 5.95827C22.3941 5.45861 21.388 5.65611 20.885 6.39884L23.5605 8.2084V8.21008Z" fill="#0A3441"/>
  <path d="M17.0348 30.3198C23.7472 30.3198 29.1886 24.8338 29.1886 18.0664C29.1886 11.2991 23.7472 5.81311 17.0348 5.81311C10.3225 5.81311 4.8811 11.2991 4.8811 18.0664C4.8811 24.8338 10.3225 30.3198 17.0348 30.3198Z" fill="#F5C09C"/>
  <path d="M22.7436 24.6868C22.7436 24.6868 28.1031 23.2385 28.5757 21.9185C29.0484 20.5985 27.519 27.5565 20.7754 29.7644" fill="#0A3441"/>
  <path d="M11.4712 24.6598C11.4712 24.6598 5.97162 23.1743 5.48547 21.8189C4.99933 20.4651 6.56918 27.6054 13.4901 29.8707" fill="#0A3441"/>
  <path fill-rule="evenodd" clip-rule="evenodd" d="M12.6746 12.0976C12.2177 12.0976 11.6871 12.1042 11.1067 12.129C10.6875 12.1468 10.3333 11.8215 10.3154 11.4024C10.2975 10.9832 10.6228 10.629 11.042 10.6111C11.6499 10.5852 12.203 10.5784 12.6746 10.5784C13.1881 10.5784 13.609 10.5891 13.9028 10.6C14.0497 10.6054 14.165 10.6109 14.2443 10.615C14.284 10.6171 14.3147 10.6188 14.3359 10.6201L14.3605 10.6216L14.3673 10.622L14.3702 10.6222C14.3702 10.6222 14.3704 10.6222 14.3204 11.3802L14.3704 10.6222C14.789 10.6498 15.106 11.0116 15.0783 11.4302C15.0507 11.8488 14.6891 12.1657 14.2705 12.1381C14.2705 12.1381 14.2705 12.1381 14.2705 12.1381L14.2697 12.1381L14.2654 12.1378L14.246 12.1366C14.2282 12.1356 14.2011 12.134 14.1651 12.1322C14.093 12.1284 13.9855 12.1233 13.8467 12.1182C13.5691 12.1079 13.1671 12.0976 12.6746 12.0976Z" fill="#ED927C"/>
  <path d="M17.0347 30.9999C20.5307 30.9999 23.3647 28.2792 23.3647 24.9231C23.3647 21.5669 20.5307 18.8462 17.0347 18.8462C13.5387 18.8462 10.7046 21.5669 10.7046 24.9231C10.7046 28.2792 13.5387 30.9999 17.0347 30.9999Z" fill="black"/>
  <path d="M17.0347 30.3198C20.5307 30.3198 23.3647 27.599 23.3647 24.2429C23.3647 20.8867 20.5307 18.166 17.0347 18.166C13.5387 18.166 10.7046 20.8867 10.7046 24.2429C10.7046 27.599 13.5387 30.3198 17.0347 30.3198Z" fill="#0A3441"/>
  <path fill-rule="evenodd" clip-rule="evenodd" d="M21.2834 12.0756C20.8266 12.0756 20.296 12.0823 19.7155 12.107C19.2964 12.1249 18.9421 11.7996 18.9243 11.3804C18.9064 10.9613 19.2317 10.607 19.6509 10.5892C20.2588 10.5633 20.8119 10.5564 21.2834 10.5564C21.797 10.5564 22.2179 10.5672 22.5117 10.578C22.6586 10.5834 22.7739 10.5889 22.8532 10.593C22.8929 10.5951 22.9236 10.5969 22.9448 10.5981L22.9694 10.5996L22.9762 10.6L22.9791 10.6002C22.9791 10.6002 22.9793 10.6002 22.9293 11.3582L22.9793 10.6002C23.3979 10.6279 23.7148 10.9896 23.6872 11.4082C23.6596 11.8268 23.2979 12.1437 22.8794 12.1162C22.8793 12.1162 22.8794 12.1162 22.8794 12.1162L22.8786 12.1161L22.8743 12.1159L22.8548 12.1147C22.8371 12.1136 22.81 12.1121 22.7739 12.1102C22.7019 12.1064 22.5943 12.1013 22.4556 12.0962C22.178 12.0859 21.776 12.0756 21.2834 12.0756Z" fill="#EC917C"/>
  <path fill-rule="evenodd" clip-rule="evenodd" d="M12.6746 11.8443C12.2177 11.8443 11.6871 11.8509 11.1067 11.8757C10.6875 11.8935 10.3333 11.5682 10.3154 11.1491C10.2975 10.73 10.6228 10.3757 11.042 10.3578C11.6499 10.3319 12.203 10.3251 12.6746 10.3251C13.1881 10.3251 13.609 10.3358 13.9028 10.3467C14.0497 10.3521 14.165 10.3576 14.2443 10.3617C14.284 10.3638 14.3147 10.3655 14.3359 10.3668L14.3605 10.3683L14.3673 10.3687L14.3702 10.3689C14.3702 10.3689 14.3704 10.3689 14.3204 11.1269L14.3704 10.3689C14.789 10.3965 15.106 10.7583 15.0783 11.1769C15.0507 11.5955 14.6891 11.9124 14.2705 11.8849C14.2705 11.8848 14.2705 11.8849 14.2705 11.8849L14.2697 11.8848L14.2654 11.8845L14.246 11.8833C14.2282 11.8823 14.2011 11.8807 14.1651 11.8789C14.093 11.8751 13.9855 11.87 13.8467 11.8649C13.5691 11.8546 13.1671 11.8443 12.6746 11.8443Z" fill="#0A3441"/>
  <path fill-rule="evenodd" clip-rule="evenodd" d="M21.2834 11.8224C20.8266 11.8224 20.296 11.8291 19.7155 11.8538C19.2964 11.8717 18.9421 11.5464 18.9243 11.1272C18.9064 10.7081 19.2317 10.3538 19.6509 10.336C20.2588 10.3101 20.8119 10.3032 21.2834 10.3032C21.797 10.3032 22.2179 10.314 22.5117 10.3248C22.6586 10.3303 22.7739 10.3357 22.8532 10.3399C22.8929 10.3419 22.9236 10.3437 22.9448 10.3449L22.9694 10.3464L22.9762 10.3469L22.9791 10.3471C22.9791 10.3471 22.9793 10.3471 22.9293 11.105L22.9793 10.3471C23.3979 10.3747 23.7148 10.7364 23.6872 11.155C23.6596 11.5736 23.2979 11.8906 22.8794 11.863C22.8793 11.863 22.8794 11.863 22.8794 11.863L22.8786 11.863L22.8743 11.8627L22.8548 11.8615C22.8371 11.8604 22.81 11.8589 22.7739 11.857C22.7019 11.8532 22.5943 11.8481 22.4556 11.843C22.178 11.8328 21.776 11.8224 21.2834 11.8224Z" fill="#0A3441"/>
  <path d="M27.3943 12.5922H6.50673C5.32927 12.5922 4.37476 13.5467 4.37476 14.7241V19.9975C4.37476 21.175 5.32927 22.1295 6.50673 22.1295H27.3943C28.5717 22.1295 29.5262 21.175 29.5262 19.9975V14.7241C29.5262 13.5467 28.5717 12.5922 27.3943 12.5922Z" fill="#7A1D3E"/>
  <g style="mix-blend-mode:multiply">
    <path d="M26.697 13.2977H7.26625C6.08879 13.2977 5.13428 14.2522 5.13428 15.4297V20.7031C5.13428 21.8805 6.08879 22.835 7.26625 22.835H26.697C27.8745 22.835 28.829 21.8805 28.829 20.7031V15.4297C28.829 14.2522 27.8745 13.2977 26.697 13.2977Z" fill="#F5C09C"/>
  </g>
  <path d="M12.2003 23.6081C12.1531 23.2418 12.4299 22.9143 12.7996 22.8924C14.5534 22.786 19.4251 22.8485 21.2329 22.9211C21.6313 22.9363 21.9267 23.2958 21.8676 23.6908C21.5199 26.0456 19.4909 27.8535 17.0399 27.8535C14.5889 27.8535 12.5126 26.0034 12.2003 23.6098V23.6081Z" fill="#780D2F"/>
  <path d="M14.8506 25.0076C14.1416 25.0076 13.4968 25.2861 13.0208 25.7402C13.9002 27.0163 15.3722 27.8536 17.0399 27.8536C17.1952 27.8536 17.3505 27.8468 17.5024 27.8316C17.5058 27.7759 17.5075 27.7202 17.5075 27.6628C17.5075 26.1959 16.3175 25.0076 14.8506 25.0076Z" fill="#C81C55"/>
  <path d="M27.3943 12.0975H6.50673C5.32927 12.0975 4.37476 13.052 4.37476 14.2295V19.5029C4.37476 20.6803 5.32927 21.6348 6.50673 21.6348H27.3943C28.5717 21.6348 29.5262 20.6803 29.5262 19.5029V14.2295C29.5262 13.052 28.5717 12.0975 27.3943 12.0975Z" fill="#C81C55"/>
  <path d="M9.10965 13.6067C7.28659 13.6067 5.80957 15.0837 5.80957 16.9067C5.80957 18.7298 7.28828 20.2068 9.10965 20.2068H9.36116L12.7338 13.605H9.10965V13.6067Z" fill="#FA4B88"/>
  <path d="M15.1036 13.6067L11.731 20.2085H12.6256L15.9983 13.6067H15.1036Z" fill="#FA4B88"/>
  <path d="M24.7896 13.6067H20.3585L16.9858 20.2085H24.7896C26.6126 20.2085 28.0896 18.7315 28.0896 16.9085C28.0896 15.0854 26.6126 13.6084 24.7896 13.6084V13.6067Z" fill="#FA4B88"/>
  <path d="M12.7355 13.6067L9.36279 20.2085H11.7311L15.1037 13.6067H12.7355Z" fill="#FA4B88"/>
  <path opacity="0.55" d="M12.7355 13.6067L9.36279 20.2085H11.7311L15.1037 13.6067H12.7355Z" fill="white"/>
  <path d="M15.9984 13.6067L12.6257 20.2085H16.9859L20.3585 13.6067H15.9984Z" fill="#FA4B88"/>
  <path opacity="0.55" d="M15.9984 13.6067L12.6257 20.2085H16.9859L20.3585 13.6067H15.9984Z" fill="white"/>
  <g style="mix-blend-mode:screen" opacity="0.49">
    <path d="M8.76843 13.3669C6.8424 13.3669 5.2793 14.9537 5.2793 16.9118C5.2793 18.8699 6.84072 20.4566 8.76843 20.4566H9.03514L12.6002 13.3669H8.77012H8.76843Z" fill="#FA4B88"/>
    <path d="M15.1037 13.3669L11.5403 20.4566H12.4839L16.0473 13.3669H15.1037Z" fill="#FA4B88"/>
    <path d="M25.3397 13.3669H20.6571L17.092 20.4566H25.3397C27.2657 20.4566 28.8288 18.8699 28.8288 16.9118C28.8288 14.9537 27.2674 13.3669 25.3397 13.3669Z" fill="#FA4B88"/>
    <path d="M12.6003 13.3669L9.03516 20.4566H11.5402L15.1036 13.3669H12.6003Z" fill="#FA4B88"/>
    <path d="M16.0473 13.3669L12.4839 20.4566H17.0922L20.6573 13.3669H16.0473Z" fill="#FA4B88"/>
  </g>
  <g style="mix-blend-mode:screen" opacity="0.31">
    <path d="M7.88399 12.6464C5.77566 12.6464 4.06738 14.4981 4.06738 16.7837C4.06738 19.0676 5.77566 20.921 7.88399 20.921H8.17602L12.077 12.648H7.88568L7.88399 12.6464Z" fill="#FA4B88"/>
    <path d="M14.8151 12.6461L10.9158 20.9208H11.9488L15.8482 12.6461H14.8151Z" fill="#FA4B88"/>
    <path d="M26.0168 12.6462H20.892L16.991 20.9192H26.0168C28.1251 20.9192 29.8334 19.0674 29.8334 16.7819C29.8334 14.498 28.1251 12.6445 26.0168 12.6445V12.6462Z" fill="#FA4B88"/>
    <path d="M12.0753 12.6461L8.17432 20.9208H10.9157L14.815 12.6461H12.0753Z" fill="#FA4B88"/>
    <path d="M15.8481 12.6461L11.9487 20.9208H16.9908L20.8919 12.6461H15.8481Z" fill="#FA4B88"/>
    <path d="M12.0753 12.6461L8.17432 20.9208H10.9157L14.815 12.6461H12.0753Z" fill="#FA4B88"/>
    <path d="M15.8481 12.6461L11.9487 20.9208H16.9908L20.8919 12.6461H15.8481Z" fill="#FA4B88"/>
  </g>
  <path d="M19.783 7.03347C19.0335 6.70093 18.6503 5.87549 18.8394 5.099C18.7887 5.17834 18.7415 5.26105 18.7026 5.35051C18.3363 6.19959 18.7195 7.18708 19.5568 7.55844C20.394 7.92981 21.3714 7.54156 21.7377 6.69418C21.7765 6.60471 21.8052 6.51356 21.8272 6.42072C21.3917 7.08917 20.5325 7.36601 19.783 7.03347Z" fill="#EC917C"/>
  <path d="M19.7829 7.03356C20.5324 7.3661 21.3916 7.08926 21.8271 6.42081C22.0162 5.64263 21.633 4.81719 20.8835 4.48634C20.134 4.15548 19.2748 4.43063 18.8393 5.09909C18.6503 5.87727 19.0334 6.70271 19.7829 7.03356Z" fill="#EC917C"/>
  <path d="M14.1872 7.0706C15.0295 6.78701 15.5393 5.98182 15.4329 5.18677C15.4785 5.26948 15.519 5.35726 15.5494 5.4501C15.8381 6.32956 15.308 7.29848 14.3661 7.61414C13.4242 7.9298 12.4283 7.47403 12.1396 6.59458C12.1092 6.50173 12.0907 6.40721 12.0771 6.31436C12.4603 7.01658 13.3465 7.3525 14.1872 7.0706Z" fill="#EC917C"/>
  <path d="M14.1871 7.07063C13.3448 7.35422 12.4603 7.0183 12.0771 6.3144C11.969 5.51934 12.4805 4.71415 13.3228 4.43057C14.1652 4.14698 15.0497 4.4829 15.4329 5.1868C15.5409 5.98186 15.0294 6.78704 14.1871 7.07063Z" fill="#EC917C"/>
  <path d="M16.9066 6.88159C15.2709 6.88159 13.9154 5.67972 13.6471 4.09973C13.615 4.28541 13.5947 4.47616 13.5947 4.67197C13.5947 6.52373 15.0768 8.02606 16.9066 8.02606C18.7364 8.02606 20.2185 6.52373 20.2185 4.67197C20.2185 4.47616 20.1983 4.28541 20.1662 4.09973C19.8978 5.67803 18.5423 6.88159 16.9066 6.88159Z" fill="#EC917C"/>
  <path d="M16.9065 6.88158C18.5422 6.88158 19.8977 5.67971 20.1661 4.09973C19.8977 2.52143 18.5422 1.31787 16.9065 1.31787C15.2708 1.31787 13.9154 2.51974 13.647 4.09973C13.9154 5.67802 15.2708 6.88158 16.9065 6.88158Z" fill="#EC917C"/>
  <g style="mix-blend-mode:multiply" opacity="0.55">
    <path fill-rule="evenodd" clip-rule="evenodd" d="M11.8323 12.6461C11.8323 12.4131 12.0212 12.2241 12.2543 12.2241H24.3658C24.5989 12.2241 24.7878 12.4131 24.7878 12.6461C24.7878 12.8792 24.5989 13.0681 24.3658 13.0681H12.2543C12.0212 13.0681 11.8323 12.8792 11.8323 12.6461Z" fill="#660527"/>
  </g>
  <path d="M19.9752 6.8563C19.1919 6.51363 18.7919 5.66287 18.9894 4.85938C18.9354 4.9404 18.8864 5.02649 18.8459 5.11933C18.4627 5.99541 18.8628 7.01498 19.7389 7.39816C20.6149 7.78134 21.6345 7.38128 22.0177 6.50519C22.0582 6.41235 22.0886 6.31782 22.1105 6.22329C21.6564 6.91369 20.7584 7.19897 19.9752 6.8563Z" fill="black"/>
  <path d="M19.9752 6.85625C20.7585 7.19891 21.6548 6.91364 22.1106 6.22324C22.3081 5.42143 21.908 4.56898 21.1248 4.22631C20.3415 3.88364 19.4452 4.16892 18.9894 4.85932C18.7919 5.66113 19.192 6.51358 19.9752 6.85625Z" fill="#0A3441"/>
  <path d="M14.1279 6.89335C15.0074 6.60132 15.5408 5.77082 15.4294 4.95044C15.4766 5.03653 15.5188 5.12599 15.5509 5.22221C15.8514 6.12868 15.2977 7.12967 14.3153 7.45546C13.3311 7.78125 12.2896 7.31198 11.9892 6.40382C11.9571 6.30761 11.9368 6.21139 11.9233 6.11348C12.3251 6.83933 13.2484 7.18538 14.1279 6.89335Z" fill="black"/>
  <path d="M14.1281 6.89336C13.2487 7.18539 12.3236 6.83935 11.9236 6.1135C11.8122 5.29312 12.3456 4.46262 13.225 4.17059C14.1045 3.87856 15.0295 4.2246 15.4296 4.95045C15.541 5.77083 15.0076 6.60134 14.1281 6.89336Z" fill="#0A3441"/>
  <path d="M16.9707 6.69922C15.2607 6.69922 13.8445 5.45853 13.5643 3.82959C13.5305 4.02202 13.5103 4.21783 13.5103 4.4204C13.5103 6.33123 15.0599 7.88084 16.9707 7.88084C18.8815 7.88084 20.4311 6.33123 20.4311 4.4204C20.4311 4.21783 20.4109 4.02202 20.3771 3.82959C20.0969 5.45853 18.6807 6.69922 16.9707 6.69922Z" fill="black"/>
  <path d="M16.9706 6.69923C18.6806 6.69923 20.0968 5.45853 20.3771 3.82959C20.0968 2.20066 18.6806 0.959961 16.9706 0.959961C15.2607 0.959961 13.8444 2.20066 13.5642 3.82959C13.8444 5.45853 15.2607 6.69923 16.9706 6.69923Z" fill="#0A3441"/>
  <path d="M20.4311 22.8351V23.8411C20.4311 24.0167 20.2876 24.1585 20.1121 24.1585H13.8698C13.6605 24.1585 13.49 23.988 13.49 23.777V22.8351H20.4311Z" fill="white"/>
  <path fill-rule="evenodd" clip-rule="evenodd" d="M26.9236 12.7052C26.9385 12.6131 27.0252 12.5506 27.1172 12.5656L27.0902 12.7322C27.1172 12.5656 27.1173 12.5656 27.1174 12.5656L27.1176 12.5656L27.1181 12.5657L27.1192 12.5659L27.1225 12.5665C27.1251 12.5669 27.1285 12.5676 27.1327 12.5684C27.1411 12.57 27.1527 12.5725 27.1672 12.5759C27.1961 12.5826 27.2364 12.5932 27.2856 12.6092C27.3839 12.6409 27.5183 12.6941 27.6671 12.7806C27.9658 12.9542 28.3215 13.2614 28.5577 13.7929C28.5956 13.8781 28.5572 13.9779 28.472 14.0157C28.3869 14.0536 28.2871 14.0152 28.2492 13.93C28.0466 13.474 27.7456 13.2167 27.4975 13.0725C27.3728 13 27.2611 12.956 27.1818 12.9304C27.1421 12.9176 27.1108 12.9094 27.0901 12.9045C27.0798 12.9021 27.0722 12.9006 27.0676 12.8996L27.063 12.8988C27.0626 12.8987 27.0625 12.8987 27.0625 12.8987L27.0627 12.8987L27.0629 12.8988L27.063 12.8988C26.9711 12.8838 26.9087 12.7971 26.9236 12.7052Z" fill="white"/>
  <path fill-rule="evenodd" clip-rule="evenodd" d="M28.6551 14.8946C28.726 14.8946 28.7834 14.8372 28.7834 14.7663C28.7834 14.6955 28.726 14.638 28.6551 14.638C28.5843 14.638 28.5268 14.6955 28.5268 14.7663C28.5268 14.8372 28.5843 14.8946 28.6551 14.8946ZM28.4458 14.7663C28.4458 14.6507 28.5395 14.557 28.6551 14.557C28.7707 14.557 28.8644 14.6507 28.8644 14.7663C28.8644 14.8819 28.7707 14.9756 28.6551 14.9756C28.5395 14.9756 28.4458 14.8819 28.4458 14.7663Z" fill="white"/>
</svg>
