<svg width="1200" height="630" viewBox="0 0 1200 630" fill="none" xmlns="http://www.w3.org/2000/svg">
<rect width="1200" height="630" fill="#111111"/>
<path d="M66.9629 210C65.2979 210 64.2383 208.91 64.2383 207.185V169.131C64.2383 167.405 65.2979 166.315 66.9629 166.315H78.9209C91.8779 166.315 99.5371 174.398 99.5371 188.143C99.5371 201.917 91.9082 210 78.9209 210H66.9629ZM69.6875 205.096H78.5576C88.457 205.096 93.9668 199.041 93.9668 188.203C93.9668 177.274 88.4873 171.22 78.5576 171.22H69.6875V205.096ZM119.63 210.545C110.336 210.545 104.887 204.551 104.887 194.379C104.887 184.449 110.488 177.971 119.176 177.971C127.229 177.971 132.89 183.995 132.89 192.623C132.89 194.53 131.8 195.681 129.984 195.681H110.306C110.306 202.038 113.787 205.974 119.418 205.974C123.172 205.974 125.473 204.642 127.925 201.069C128.47 200.312 129.076 200.01 129.893 200.01C131.285 200.01 132.224 200.918 132.224 202.311C132.224 202.734 132.073 203.279 131.83 203.854C129.802 208.123 125.382 210.545 119.63 210.545ZM110.336 191.563H127.441C127.32 186.114 123.959 182.542 119.085 182.542C114.181 182.542 110.669 186.145 110.336 191.563ZM150.077 210.545C144.476 210.545 140.087 208.032 138.573 204.097C138.391 203.643 138.331 203.249 138.331 202.855C138.331 201.463 139.36 200.676 140.722 200.676C141.661 200.676 142.418 201.16 143.023 202.25C144.597 205.005 146.474 206.246 150.501 206.246C154.527 206.246 157.252 204.49 157.252 201.554C157.252 199.283 155.95 198.072 152.408 197.194L147.594 195.983C141.509 194.47 138.573 191.594 138.573 187.174C138.573 181.694 143.386 177.971 150.501 177.971C155.677 177.971 160.279 180.877 161.096 184.661C161.157 184.964 161.187 185.206 161.187 185.448C161.187 186.689 160.4 187.507 159.129 187.507C158.099 187.507 157.373 187.174 156.798 186.084C155.435 183.45 153.407 182.3 150.198 182.3C146.414 182.3 143.78 184.207 143.78 186.901C143.78 189.081 145.475 190.595 148.926 191.442L153.619 192.593C160.188 194.197 162.61 196.498 162.61 201.13C162.61 206.761 157.554 210.545 150.077 210.545ZM171.865 173.218C170.079 173.218 168.596 171.734 168.596 169.948C168.596 168.132 170.079 166.679 171.865 166.679C173.682 166.679 175.165 168.132 175.165 169.948C175.165 171.734 173.682 173.218 171.865 173.218ZM171.865 210.545C170.321 210.545 169.231 209.395 169.231 207.729V180.786C169.231 179.121 170.321 177.971 171.865 177.971C173.409 177.971 174.499 179.121 174.499 180.786V207.729C174.499 209.395 173.409 210.545 171.865 210.545ZM195.258 221.867C189.991 221.807 185.601 219.718 183.391 216.236C182.967 215.57 182.785 214.965 182.785 214.269C182.785 212.937 183.754 211.998 185.147 211.998C186.025 211.998 186.539 212.301 187.357 213.209C190.051 216.176 192.261 217.326 195.47 217.387C201.101 217.478 204.522 214.238 204.522 209.546V204.581H204.401C202.463 208.002 198.709 210.242 194.289 210.242C186.267 210.242 180.999 203.915 180.999 194.137C180.999 184.268 186.267 177.971 194.41 177.971C198.861 177.971 202.342 180.15 204.431 183.692H204.522V180.695C204.522 179.061 205.642 177.971 207.156 177.971C208.669 177.971 209.789 179.061 209.789 180.695V209.364C209.789 216.872 204.219 221.958 195.258 221.867ZM195.349 205.61C200.828 205.61 204.522 201.069 204.522 194.137C204.522 187.204 200.828 182.603 195.349 182.603C189.93 182.603 186.388 187.083 186.388 194.137C186.388 201.19 189.93 205.61 195.349 205.61ZM220.195 210.545C218.651 210.545 217.561 209.395 217.561 207.729V180.635C217.561 179.061 218.59 177.971 220.044 177.971C221.497 177.971 222.526 179.061 222.526 180.635V183.541H222.647C224.403 180.15 227.763 177.971 232.637 177.971C239.54 177.971 243.536 182.421 243.536 189.565V207.729C243.536 209.395 242.446 210.545 240.902 210.545C239.358 210.545 238.268 209.395 238.268 207.729V190.504C238.268 185.418 235.877 182.633 231.033 182.633C226.068 182.633 222.829 186.145 222.829 191.473V207.729C222.829 209.395 221.739 210.545 220.195 210.545ZM278.031 210.545C268.737 210.545 263.287 204.551 263.287 194.379C263.287 184.449 268.888 177.971 277.576 177.971C285.629 177.971 291.29 183.995 291.29 192.623C291.29 194.53 290.2 195.681 288.384 195.681H268.706C268.706 202.038 272.188 205.974 277.819 205.974C281.572 205.974 283.873 204.642 286.325 201.069C286.87 200.312 287.476 200.01 288.293 200.01C289.686 200.01 290.624 200.918 290.624 202.311C290.624 202.734 290.473 203.279 290.231 203.854C288.202 208.123 283.782 210.545 278.031 210.545ZM268.737 191.563H285.841C285.72 186.114 282.36 182.542 277.486 182.542C272.581 182.542 269.07 186.145 268.737 191.563ZM300.182 210.545C298.638 210.545 297.548 209.395 297.548 207.729V180.635C297.548 179.061 298.578 177.971 300.031 177.971C301.484 177.971 302.513 179.061 302.513 180.635V183.541H302.634C304.39 180.15 307.751 177.971 312.625 177.971C319.527 177.971 323.523 182.421 323.523 189.565V207.729C323.523 209.395 322.433 210.545 320.889 210.545C319.345 210.545 318.255 209.395 318.255 207.729V190.504C318.255 185.418 315.864 182.633 311.02 182.633C306.055 182.633 302.816 186.145 302.816 191.473V207.729C302.816 209.395 301.726 210.545 300.182 210.545ZM343.889 221.867C338.621 221.807 334.231 219.718 332.021 216.236C331.598 215.57 331.416 214.965 331.416 214.269C331.416 212.937 332.385 211.998 333.777 211.998C334.655 211.998 335.17 212.301 335.987 213.209C338.682 216.176 340.891 217.326 344.1 217.387C349.731 217.478 353.152 214.238 353.152 209.546V204.581H353.031C351.094 208.002 347.34 210.242 342.92 210.242C334.897 210.242 329.63 203.915 329.63 194.137C329.63 184.268 334.897 177.971 343.041 177.971C347.491 177.971 350.973 180.15 353.061 183.692H353.152V180.695C353.152 179.061 354.272 177.971 355.786 177.971C357.3 177.971 358.42 179.061 358.42 180.695V209.364C358.42 216.872 352.849 221.958 343.889 221.867ZM343.979 205.61C349.459 205.61 353.152 201.069 353.152 194.137C353.152 187.204 349.459 182.603 343.979 182.603C338.56 182.603 335.018 187.083 335.018 194.137C335.018 201.19 338.56 205.61 343.979 205.61ZM369.098 173.218C367.312 173.218 365.828 171.734 365.828 169.948C365.828 168.132 367.312 166.679 369.098 166.679C370.914 166.679 372.398 168.132 372.398 169.948C372.398 171.734 370.914 173.218 369.098 173.218ZM369.098 210.545C367.554 210.545 366.464 209.395 366.464 207.729V180.786C366.464 179.121 367.554 177.971 369.098 177.971C370.642 177.971 371.732 179.121 371.732 180.786V207.729C371.732 209.395 370.642 210.545 369.098 210.545ZM382.41 210.545C380.866 210.545 379.776 209.395 379.776 207.729V180.635C379.776 179.061 380.805 177.971 382.258 177.971C383.711 177.971 384.741 179.061 384.741 180.635V183.541H384.862C386.618 180.15 389.978 177.971 394.852 177.971C401.754 177.971 405.751 182.421 405.751 189.565V207.729C405.751 209.395 404.661 210.545 403.117 210.545C401.573 210.545 400.483 209.395 400.483 207.729V190.504C400.483 185.418 398.091 182.633 393.248 182.633C388.283 182.633 385.043 186.145 385.043 191.473V207.729C385.043 209.395 383.954 210.545 382.41 210.545ZM426.6 210.545C417.306 210.545 411.857 204.551 411.857 194.379C411.857 184.449 417.458 177.971 426.146 177.971C434.199 177.971 439.86 183.995 439.86 192.623C439.86 194.53 438.77 195.681 436.954 195.681H417.276C417.276 202.038 420.758 205.974 426.389 205.974C430.142 205.974 432.443 204.642 434.895 201.069C435.44 200.312 436.046 200.01 436.863 200.01C438.256 200.01 439.194 200.918 439.194 202.311C439.194 202.734 439.043 203.279 438.801 203.854C436.772 208.123 432.352 210.545 426.6 210.545ZM417.306 191.563H434.411C434.29 186.114 430.93 182.542 426.056 182.542C421.151 182.542 417.639 186.145 417.306 191.563ZM459.318 210.545C450.024 210.545 444.574 204.551 444.574 194.379C444.574 184.449 450.175 177.971 458.863 177.971C466.916 177.971 472.577 183.995 472.577 192.623C472.577 194.53 471.487 195.681 469.671 195.681H449.993C449.993 202.038 453.475 205.974 459.106 205.974C462.86 205.974 465.16 204.642 467.612 201.069C468.157 200.312 468.763 200.01 469.58 200.01C470.973 200.01 471.911 200.918 471.911 202.311C471.911 202.734 471.76 203.279 471.518 203.854C469.489 208.123 465.069 210.545 459.318 210.545ZM450.024 191.563H467.128C467.007 186.114 463.647 182.542 458.773 182.542C453.868 182.542 450.357 186.145 450.024 191.563ZM481.469 210.545C479.925 210.545 478.835 209.395 478.835 207.729V180.635C478.835 179.061 479.865 177.971 481.318 177.971C482.771 177.971 483.8 179.061 483.8 180.635V183.662H483.921C484.83 180.393 487.917 177.971 491.066 177.971C492.216 177.971 493.034 178.243 493.548 178.728C494.002 179.151 494.214 179.757 494.214 180.483C494.214 181.301 493.942 181.906 493.397 182.33C492.852 182.784 492.035 182.996 490.884 182.996C486.131 182.996 484.103 186.417 484.103 190.443V207.729C484.103 209.395 483.013 210.545 481.469 210.545ZM511.726 194.742C510.242 194.742 509.122 193.773 509.122 192.29C509.122 190.807 510.242 189.838 511.726 189.838H568.519C570.002 189.838 571.122 190.807 571.122 192.29C571.122 193.773 570.002 194.742 568.519 194.742H511.726ZM601.046 210.545C593.023 210.545 587.574 204.127 587.574 194.258C587.574 184.389 592.993 177.971 600.925 177.971C605.435 177.971 609.068 180.181 610.945 183.632H611.066V168.586C611.066 166.921 612.156 165.771 613.7 165.771C615.244 165.771 616.334 166.921 616.334 168.586V207.972C616.334 209.485 615.274 210.545 613.76 210.545C612.277 210.545 611.066 209.516 611.066 207.972V204.369H610.975C609.25 208.123 605.98 210.545 601.046 210.545ZM602.045 205.913C607.464 205.913 611.096 201.312 611.096 194.258C611.096 187.234 607.464 182.603 602.045 182.603C596.474 182.603 592.963 187.144 592.963 194.258C592.963 201.402 596.474 205.913 602.045 205.913ZM637.577 210.545C628.283 210.545 622.834 204.551 622.834 194.379C622.834 184.449 628.435 177.971 637.123 177.971C645.176 177.971 650.837 183.995 650.837 192.623C650.837 194.53 649.747 195.681 647.931 195.681H628.253C628.253 202.038 631.734 205.974 637.365 205.974C641.119 205.974 643.42 204.642 645.872 201.069C646.417 200.312 647.023 200.01 647.84 200.01C649.232 200.01 650.171 200.918 650.171 202.311C650.171 202.734 650.02 203.279 649.777 203.854C647.749 208.123 643.329 210.545 637.577 210.545ZM628.283 191.563H645.388C645.267 186.114 641.906 182.542 637.032 182.542C632.128 182.542 628.616 186.145 628.283 191.563ZM669.023 210.545C661 210.545 655.551 204.127 655.551 194.258C655.551 184.389 660.97 177.971 668.902 177.971C673.412 177.971 677.045 180.181 678.922 183.632H679.043V168.586C679.043 166.921 680.133 165.771 681.677 165.771C683.221 165.771 684.311 166.921 684.311 168.586V207.972C684.311 209.485 683.251 210.545 681.738 210.545C680.254 210.545 679.043 209.516 679.043 207.972V204.369H678.953C677.227 208.123 673.957 210.545 669.023 210.545ZM670.022 205.913C675.441 205.913 679.074 201.312 679.074 194.258C679.074 187.234 675.441 182.603 670.022 182.603C664.452 182.603 660.94 187.144 660.94 194.258C660.94 201.402 664.452 205.913 670.022 205.913ZM695.261 173.218C693.475 173.218 691.992 171.734 691.992 169.948C691.992 168.132 693.475 166.679 695.261 166.679C697.078 166.679 698.561 168.132 698.561 169.948C698.561 171.734 697.078 173.218 695.261 173.218ZM695.261 210.545C693.718 210.545 692.628 209.395 692.628 207.729V180.786C692.628 179.121 693.718 177.971 695.261 177.971C696.805 177.971 697.895 179.121 697.895 180.786V207.729C697.895 209.395 696.805 210.545 695.261 210.545ZM718.927 210.545C710.208 210.545 704.396 204.278 704.396 194.318C704.396 184.419 710.148 177.971 718.866 177.971C724.8 177.971 729.977 181.331 731.188 185.69C731.309 186.084 731.369 186.478 731.369 186.811C731.369 188.203 730.491 189.111 729.129 189.111C727.979 189.111 727.343 188.627 726.616 187.265C724.951 184.146 722.56 182.603 718.927 182.603C713.447 182.603 709.754 187.204 709.754 194.258C709.754 201.493 713.508 205.913 718.927 205.913C722.711 205.913 725.012 204.278 726.647 201.251C727.403 199.828 727.979 199.404 729.129 199.404C730.491 199.404 731.399 200.343 731.399 201.705C731.399 202.099 731.309 202.553 731.157 203.037C729.644 207.396 724.648 210.545 718.927 210.545ZM747.103 210.545C740.836 210.545 736.628 206.761 736.628 201.1C736.628 195.711 740.776 192.32 748.041 191.896L757.093 191.382V188.748C757.093 184.903 754.55 182.603 750.191 182.603C746.77 182.603 744.439 183.844 742.683 186.962C742.199 187.84 741.502 188.233 740.503 188.233C739.141 188.233 738.172 187.295 738.172 185.872C738.172 185.206 738.384 184.449 738.808 183.692C740.594 180.241 745.196 177.971 750.312 177.971C757.699 177.971 762.361 181.967 762.361 188.233V207.881C762.361 209.455 761.331 210.545 759.878 210.545C758.395 210.545 757.366 209.455 757.366 207.881V204.581H757.245C755.368 208.184 751.341 210.545 747.103 210.545ZM748.284 206.064C753.248 206.064 757.093 202.583 757.093 198.042V195.469L748.647 195.983C744.409 196.256 741.987 198.133 741.987 201.1C741.987 204.097 744.499 206.064 748.284 206.064ZM771.676 202.734V182.845H769.043C767.529 182.845 766.681 182.058 766.681 180.665C766.681 179.303 767.529 178.516 769.043 178.516H771.676V173.127C771.676 171.462 772.766 170.312 774.31 170.312C775.854 170.312 776.944 171.462 776.944 173.127V178.516H781.001C782.514 178.516 783.362 179.303 783.362 180.665C783.362 182.058 782.514 182.845 781.001 182.845H776.944V201.584C776.944 204.248 777.883 205.52 780.516 205.701L780.97 205.731C782.696 205.853 783.483 206.549 783.483 207.79C783.483 209.395 782.575 210.242 779.638 210.242H779.305C774.219 210.242 771.676 207.76 771.676 202.734ZM792.526 173.218C790.74 173.218 789.257 171.734 789.257 169.948C789.257 168.132 790.74 166.679 792.526 166.679C794.343 166.679 795.826 168.132 795.826 169.948C795.826 171.734 794.343 173.218 792.526 173.218ZM792.526 210.545C790.982 210.545 789.893 209.395 789.893 207.729V180.786C789.893 179.121 790.982 177.971 792.526 177.971C794.07 177.971 795.16 179.121 795.16 180.786V207.729C795.16 209.395 794.07 210.545 792.526 210.545ZM816.252 210.545C807.534 210.545 801.66 204.278 801.66 194.258C801.66 184.207 807.534 177.971 816.252 177.971C824.941 177.971 830.814 184.207 830.814 194.258C830.814 204.278 824.941 210.545 816.252 210.545ZM816.252 205.913C821.823 205.913 825.455 201.675 825.455 194.258C825.455 186.841 821.823 182.603 816.252 182.603C810.682 182.603 807.019 186.841 807.019 194.258C807.019 201.675 810.682 205.913 816.252 205.913ZM839.706 210.545C838.162 210.545 837.072 209.395 837.072 207.729V180.635C837.072 179.061 838.101 177.971 839.554 177.971C841.007 177.971 842.037 179.061 842.037 180.635V183.541H842.158C843.914 180.15 847.274 177.971 852.148 177.971C859.05 177.971 863.047 182.421 863.047 189.565V207.729C863.047 209.395 861.957 210.545 860.413 210.545C858.869 210.545 857.779 209.395 857.779 207.729V190.504C857.779 185.418 855.387 182.633 850.544 182.633C845.579 182.633 842.339 186.145 842.339 191.473V207.729C842.339 209.395 841.25 210.545 839.706 210.545ZM72.5938 284.545C66.3271 284.545 62.1191 280.761 62.1191 275.1C62.1191 269.711 66.2666 266.32 73.5322 265.896L82.584 265.382V262.748C82.584 258.903 80.041 256.603 75.6816 256.603C72.2607 256.603 69.9297 257.844 68.1738 260.962C67.6895 261.84 66.9932 262.233 65.9941 262.233C64.6318 262.233 63.6631 261.295 63.6631 259.872C63.6631 259.206 63.875 258.449 64.2988 257.692C66.085 254.241 70.6865 251.971 75.8027 251.971C83.1895 251.971 87.8516 255.967 87.8516 262.233V281.881C87.8516 283.455 86.8223 284.545 85.3691 284.545C83.8857 284.545 82.8564 283.455 82.8564 281.881V278.581H82.7354C80.8584 282.184 76.832 284.545 72.5938 284.545ZM73.7744 280.064C78.7393 280.064 82.584 276.583 82.584 272.042V269.469L74.1377 269.983C69.8994 270.256 67.4775 272.133 67.4775 275.1C67.4775 278.097 69.9902 280.064 73.7744 280.064ZM98.1058 284.545C96.5618 284.545 95.472 283.395 95.472 281.729V254.635C95.472 253.061 96.5013 251.971 97.9544 251.971C99.4075 251.971 100.437 253.061 100.437 254.635V257.541H100.558C102.314 254.15 105.674 251.971 110.548 251.971C117.451 251.971 121.447 256.421 121.447 263.565V281.729C121.447 283.395 120.357 284.545 118.813 284.545C117.269 284.545 116.179 283.395 116.179 281.729V264.504C116.179 259.418 113.787 256.633 108.944 256.633C103.979 256.633 100.74 260.145 100.74 265.473V281.729C100.74 283.395 99.6497 284.545 98.1058 284.545ZM141.025 284.545C133.003 284.545 127.553 278.127 127.553 268.258C127.553 258.389 132.972 251.971 140.904 251.971C145.415 251.971 149.048 254.181 150.924 257.632H151.046V242.586C151.046 240.921 152.135 239.771 153.679 239.771C155.223 239.771 156.313 240.921 156.313 242.586V281.972C156.313 283.485 155.254 284.545 153.74 284.545C152.256 284.545 151.046 283.516 151.046 281.972V278.369H150.955C149.229 282.123 145.96 284.545 141.025 284.545ZM142.024 279.913C147.443 279.913 151.076 275.312 151.076 268.258C151.076 261.234 147.443 256.603 142.024 256.603C136.454 256.603 132.942 261.144 132.942 268.258C132.942 275.402 136.454 279.913 142.024 279.913ZM180.908 284.545C179.365 284.545 178.275 283.395 178.275 281.729V242.586C178.275 240.921 179.365 239.771 180.908 239.771C182.452 239.771 183.542 240.921 183.542 242.586V281.729C183.542 283.395 182.452 284.545 180.908 284.545ZM204.634 284.545C195.916 284.545 190.043 278.278 190.043 268.258C190.043 258.207 195.916 251.971 204.634 251.971C213.323 251.971 219.196 258.207 219.196 268.258C219.196 278.278 213.323 284.545 204.634 284.545ZM204.634 279.913C210.205 279.913 213.837 275.675 213.837 268.258C213.837 260.841 210.205 256.603 204.634 256.603C199.064 256.603 195.401 260.841 195.401 268.258C195.401 275.675 199.064 279.913 204.634 279.913ZM236.08 284.545C234.354 284.545 233.386 283.788 232.629 281.881L222.608 255.755C222.427 255.301 222.336 254.847 222.336 254.393C222.336 252.939 223.395 251.971 224.97 251.971C226.15 251.971 226.937 252.606 227.422 253.969L236.05 278.399H236.171L244.829 253.969C245.313 252.606 246.101 251.971 247.251 251.971C248.825 251.971 249.854 252.939 249.854 254.393C249.854 254.847 249.764 255.301 249.582 255.755L239.592 281.881C238.895 283.697 237.775 284.545 236.08 284.545ZM267.738 284.545C258.444 284.545 252.994 278.551 252.994 268.379C252.994 258.449 258.595 251.971 267.283 251.971C275.336 251.971 280.997 257.995 280.997 266.623C280.997 268.53 279.907 269.681 278.091 269.681H258.413C258.413 276.038 261.895 279.974 267.526 279.974C271.28 279.974 273.58 278.642 276.032 275.069C276.577 274.312 277.183 274.01 278 274.01C279.393 274.01 280.331 274.918 280.331 276.311C280.331 276.734 280.18 277.279 279.938 277.854C277.909 282.123 273.489 284.545 267.738 284.545ZM258.444 265.563H275.548C275.427 260.114 272.067 256.542 267.193 256.542C262.288 256.542 258.777 260.145 258.444 265.563ZM305.229 284.545C303.625 284.545 302.596 283.455 302.596 281.76V256.845H299.992C298.63 256.845 297.752 256.058 297.752 254.695C297.752 253.394 298.63 252.516 299.992 252.516H302.596V249.004C302.596 242.979 305.472 240.073 310.618 240.073C313.403 240.073 314.887 240.981 314.887 242.525C314.887 243.494 314.432 244.1 313.464 244.372C313.01 244.493 312.495 244.554 311.829 244.554C309.044 244.554 307.833 245.946 307.833 249.186V252.516H312.495C313.857 252.516 314.735 253.394 314.735 254.695C314.735 256.058 313.857 256.845 312.495 256.845H307.863V281.76C307.863 283.455 306.834 284.545 305.229 284.545ZM332.195 284.545C323.476 284.545 317.603 278.278 317.603 268.258C317.603 258.207 323.476 251.971 332.195 251.971C340.883 251.971 346.756 258.207 346.756 268.258C346.756 278.278 340.883 284.545 332.195 284.545ZM332.195 279.913C337.765 279.913 341.398 275.675 341.398 268.258C341.398 260.841 337.765 256.603 332.195 256.603C326.624 256.603 322.961 260.841 322.961 268.258C322.961 275.675 326.624 279.913 332.195 279.913ZM355.648 284.545C354.104 284.545 353.014 283.395 353.014 281.729V254.635C353.014 253.061 354.043 251.971 355.497 251.971C356.95 251.971 357.979 253.061 357.979 254.635V257.662H358.1C359.008 254.393 362.096 251.971 365.245 251.971C366.395 251.971 367.212 252.243 367.727 252.728C368.181 253.151 368.393 253.757 368.393 254.483C368.393 255.301 368.121 255.906 367.576 256.33C367.031 256.784 366.213 256.996 365.063 256.996C360.31 256.996 358.282 260.417 358.282 264.443V281.729C358.282 283.395 357.192 284.545 355.648 284.545ZM388.417 276.734V256.845H385.783C384.27 256.845 383.422 256.058 383.422 254.665C383.422 253.303 384.27 252.516 385.783 252.516H388.417V247.127C388.417 245.462 389.507 244.312 391.051 244.312C392.595 244.312 393.685 245.462 393.685 247.127V252.516H397.741C399.255 252.516 400.103 253.303 400.103 254.665C400.103 256.058 399.255 256.845 397.741 256.845H393.685V275.584C393.685 278.248 394.623 279.52 397.257 279.701L397.711 279.731C399.437 279.853 400.224 280.549 400.224 281.79C400.224 283.395 399.316 284.242 396.379 284.242H396.046C390.96 284.242 388.417 281.76 388.417 276.734ZM409.267 284.545C407.723 284.545 406.633 283.395 406.633 281.729V242.525C406.633 240.891 407.693 239.771 409.267 239.771C410.872 239.771 411.901 240.891 411.901 242.525V257.541H412.022C413.778 254.029 417.229 251.971 422.012 251.971C428.915 251.971 433.092 256.633 433.092 263.656V281.729C433.092 283.395 432.002 284.545 430.458 284.545C428.915 284.545 427.825 283.395 427.825 281.729V264.625C427.825 259.63 425.312 256.633 420.377 256.633C415.14 256.633 411.901 260.205 411.901 265.654V281.729C411.901 283.395 410.811 284.545 409.267 284.545ZM453.912 284.545C444.618 284.545 439.169 278.551 439.169 268.379C439.169 258.449 444.769 251.971 453.458 251.971C461.511 251.971 467.172 257.995 467.172 266.623C467.172 268.53 466.082 269.681 464.265 269.681H444.588C444.588 276.038 448.069 279.974 453.7 279.974C457.454 279.974 459.755 278.642 462.207 275.069C462.752 274.312 463.357 274.01 464.175 274.01C465.567 274.01 466.506 274.918 466.506 276.311C466.506 276.734 466.354 277.279 466.112 277.854C464.084 282.123 459.664 284.545 453.912 284.545ZM444.618 265.563H461.722C461.601 260.114 458.241 256.542 453.367 256.542C448.463 256.542 444.951 260.145 444.618 265.563ZM495.945 284.545C494.28 284.545 493.281 283.758 492.766 282.002L485.077 255.604C484.925 255.089 484.865 254.635 484.865 254.241C484.865 252.849 485.864 251.971 487.438 251.971C488.74 251.971 489.436 252.576 489.83 254.12L496.036 278.127H496.157L502.756 254.332C503.18 252.788 504.24 251.971 505.844 251.971C507.418 251.971 508.417 252.758 508.841 254.302L515.501 278.127H515.622L521.829 254.12C522.222 252.576 522.918 251.971 524.22 251.971C525.794 251.971 526.793 252.849 526.793 254.241C526.793 254.635 526.733 255.089 526.581 255.604L518.892 282.002C518.408 283.697 517.318 284.545 515.683 284.545C513.927 284.545 512.928 283.788 512.414 282.002L505.874 259.63H505.753L499.245 282.002C498.76 283.667 497.61 284.545 495.945 284.545ZM545.585 284.545C536.291 284.545 530.842 278.551 530.842 268.379C530.842 258.449 536.442 251.971 545.131 251.971C553.183 251.971 558.844 257.995 558.844 266.623C558.844 268.53 557.755 269.681 555.938 269.681H536.26C536.26 276.038 539.742 279.974 545.373 279.974C549.127 279.974 551.427 278.642 553.88 275.069C554.425 274.312 555.03 274.01 555.847 274.01C557.24 274.01 558.178 274.918 558.178 276.311C558.178 276.734 558.027 277.279 557.785 277.854C555.757 282.123 551.337 284.545 545.585 284.545ZM536.291 265.563H553.395C553.274 260.114 549.914 256.542 545.04 256.542C540.135 256.542 536.624 260.145 536.291 265.563ZM567.827 284.545C566.344 284.545 565.375 283.516 565.375 281.972V242.586C565.375 240.921 566.465 239.771 568.009 239.771C569.553 239.771 570.643 240.921 570.643 242.586V257.783H570.764C572.762 254.181 576.425 251.971 580.875 251.971C588.807 251.971 594.165 258.389 594.165 268.258C594.165 278.157 588.837 284.545 580.784 284.545C576.183 284.545 572.58 282.305 570.522 278.672H570.4V281.972C570.4 283.485 569.341 284.545 567.827 284.545ZM579.755 279.913C585.325 279.913 588.776 275.463 588.776 268.258C588.776 261.113 585.325 256.603 579.755 256.603C574.427 256.603 570.612 261.265 570.612 268.258C570.612 275.281 574.427 279.913 579.755 279.913ZM603.057 284.303C601.12 284.303 599.606 282.789 599.606 280.852C599.606 278.914 601.12 277.4 603.057 277.4C604.995 277.4 606.508 278.914 606.508 280.852C606.508 282.789 604.995 284.303 603.057 284.303Z" fill="white"/>
<path d="M870.531 588.096C870.176 588.096 869.957 587.87 869.957 587.501V578.806C869.957 578.348 870.271 578.04 870.743 578.04C871.16 578.04 871.413 578.238 871.604 578.696L874.79 586.366H874.845L878.023 578.696C878.215 578.245 878.481 578.04 878.905 578.04C879.37 578.04 879.678 578.341 879.678 578.806V587.501C879.678 587.87 879.459 588.096 879.104 588.096C878.748 588.096 878.529 587.87 878.529 587.501V580.398H878.481L875.556 587.398C875.398 587.768 875.173 587.932 874.817 587.932C874.462 587.932 874.229 587.768 874.079 587.412L871.153 580.398H871.105V587.501C871.105 587.87 870.887 588.096 870.531 588.096ZM885.755 588.164C882.959 588.164 881.209 586.202 881.209 583.071C881.209 579.94 882.959 577.972 885.755 577.972C888.551 577.972 890.301 579.94 890.301 583.071C890.301 586.202 888.551 588.164 885.755 588.164ZM885.755 587.029C887.771 587.029 889.036 585.498 889.036 583.071C889.036 580.638 887.771 579.106 885.755 579.106C883.738 579.106 882.474 580.638 882.474 583.071C882.474 585.498 883.738 587.029 885.755 587.029ZM894.327 588.096C893.951 588.096 893.712 587.85 893.712 587.46V579.243H891.087C890.738 579.243 890.499 579.018 890.499 578.689C890.499 578.361 890.738 578.136 891.087 578.136H897.567C897.916 578.136 898.155 578.361 898.155 578.689C898.155 579.018 897.916 579.243 897.567 579.243H894.942V587.46C894.942 587.85 894.703 588.096 894.327 588.096ZM899.967 588.096C899.591 588.096 899.352 587.85 899.352 587.46V578.676C899.352 578.286 899.591 578.04 899.967 578.04C900.343 578.04 900.582 578.286 900.582 578.676V587.46C900.582 587.85 900.343 588.096 899.967 588.096ZM906.659 588.164C903.863 588.164 902.113 586.202 902.113 583.071C902.113 579.94 903.863 577.972 906.659 577.972C909.455 577.972 911.205 579.94 911.205 583.071C911.205 586.202 909.455 588.164 906.659 588.164ZM906.659 587.029C908.676 587.029 909.94 585.498 909.94 583.071C909.94 580.638 908.676 579.106 906.659 579.106C904.643 579.106 903.378 580.638 903.378 583.071C903.378 585.498 904.643 587.029 906.659 587.029ZM913.345 588.096C912.969 588.096 912.736 587.85 912.736 587.46V578.758C912.736 578.327 913.017 578.04 913.44 578.04C913.769 578.04 913.933 578.136 914.151 578.45L919.333 585.881H919.395V578.676C919.395 578.286 919.627 578.04 920.003 578.04C920.379 578.04 920.611 578.286 920.611 578.676V587.426C920.611 587.843 920.352 588.096 919.914 588.096C919.579 588.096 919.422 588.007 919.203 587.692L914.015 580.282H913.953V587.46C913.953 587.85 913.721 588.096 913.345 588.096ZM927.242 585.84C926.326 585.84 925.581 585.095 925.581 584.179C925.581 583.263 926.326 582.518 927.242 582.518C928.158 582.518 928.903 583.263 928.903 584.179C928.903 585.095 928.158 585.84 927.242 585.84ZM936.484 588.096C936.115 588.096 935.91 587.911 935.794 587.508L933.381 578.942C933.34 578.792 933.326 578.71 933.326 578.601C933.326 578.272 933.579 578.04 933.935 578.04C934.256 578.04 934.461 578.218 934.543 578.532L936.484 586.188H936.539L938.617 578.73C938.754 578.238 938.973 578.04 939.39 578.04C939.793 578.04 940.012 578.238 940.142 578.703L942.227 586.188H942.281L944.223 578.532C944.305 578.211 944.517 578.04 944.831 578.04C945.187 578.04 945.439 578.272 945.439 578.601C945.439 578.71 945.426 578.792 945.385 578.942L942.972 587.508C942.855 587.911 942.65 588.096 942.281 588.096C941.898 588.096 941.693 587.925 941.57 587.515L939.417 580.173H939.349L937.195 587.515C937.072 587.925 936.867 588.096 936.484 588.096ZM947.422 588C947.046 588 946.807 587.754 946.807 587.364V578.771C946.807 578.382 947.046 578.136 947.422 578.136H952.433C952.781 578.136 953.021 578.361 953.021 578.689C953.021 579.018 952.781 579.243 952.433 579.243H948.037V582.408H952.187C952.528 582.408 952.768 582.627 952.768 582.955C952.768 583.276 952.528 583.502 952.187 583.502H948.037V586.893H952.433C952.781 586.893 953.021 587.118 953.021 587.446C953.021 587.774 952.781 588 952.433 588H947.422ZM955.16 588C954.784 588 954.545 587.754 954.545 587.364V578.771C954.545 578.382 954.784 578.136 955.16 578.136H958.284C959.973 578.136 961.114 579.12 961.114 580.597C961.114 581.622 960.362 582.579 959.412 582.75V582.805C960.752 582.976 961.613 583.919 961.613 585.231C961.613 586.968 960.369 588 958.271 588H955.16ZM955.775 582.388H957.621C959.077 582.388 959.87 581.807 959.87 580.74C959.87 579.763 959.2 579.223 958.004 579.223H955.775V582.388ZM955.775 586.913H958.086C959.569 586.913 960.349 586.312 960.349 585.17C960.349 584.028 959.542 583.447 957.97 583.447H955.775V586.913ZM967.144 588.164C964.389 588.164 962.625 586.154 962.625 583.017C962.625 579.934 964.382 577.972 967.144 577.972C968.948 577.972 970.425 578.901 970.958 580.282C971.04 580.494 971.054 580.651 971.054 580.802C971.054 581.137 970.835 581.362 970.493 581.362C970.192 581.362 970.008 581.212 969.851 580.85C969.345 579.708 968.388 579.106 967.144 579.106C965.113 579.106 963.89 580.569 963.89 583.01C963.89 585.491 965.134 587.029 967.144 587.029C968.894 587.029 970.097 585.895 970.097 584.24V584.062H967.8C967.458 584.062 967.212 583.844 967.212 583.522C967.212 583.201 967.458 582.982 967.8 582.982H970.712C971.088 582.982 971.327 583.229 971.327 583.618V583.919C971.327 586.585 969.775 588.164 967.144 588.164ZM973.521 588C973.146 588 972.906 587.754 972.906 587.364V578.676C972.906 578.286 973.146 578.04 973.521 578.04C973.897 578.04 974.137 578.286 974.137 578.676V586.893H978.409C978.758 586.893 978.997 587.118 978.997 587.446C978.997 587.774 978.758 588 978.409 588H973.521ZM984.965 585.84C984.049 585.84 983.304 585.095 983.304 584.179C983.304 583.263 984.049 582.518 984.965 582.518C985.881 582.518 986.626 583.263 986.626 584.179C986.626 585.095 985.881 585.84 984.965 585.84ZM994.829 588.164C992.977 588.164 991.657 587.33 991.288 586.141C991.247 586.004 991.22 585.854 991.22 585.71C991.22 585.32 991.438 585.074 991.787 585.074C992.095 585.074 992.286 585.231 992.382 585.56C992.683 586.578 993.653 587.057 994.897 587.057C996.237 587.057 997.208 586.353 997.208 585.382C997.208 584.555 996.661 584.008 995.294 583.707L994.2 583.468C992.225 583.037 991.37 582.142 991.37 580.74C991.37 579.113 992.806 577.972 994.85 577.972C996.497 577.972 997.823 578.799 998.179 580.132C998.199 580.207 998.213 580.31 998.213 580.439C998.213 580.774 997.98 580.993 997.652 580.993C997.338 580.993 997.146 580.829 997.037 580.515C996.695 579.517 995.882 579.079 994.815 579.079C993.585 579.079 992.635 579.681 992.635 580.686C992.635 581.465 993.161 581.998 994.508 582.292L995.602 582.531C997.659 582.982 998.473 583.803 998.473 585.197C998.473 587.022 997.037 588.164 994.829 588.164ZM1003.37 588.096C1002.98 588.096 1002.77 587.938 1002.61 587.528L999.3 578.915C999.245 578.778 999.225 578.669 999.225 578.573C999.225 578.252 999.471 578.04 999.84 578.04C1000.13 578.04 1000.32 578.177 1000.43 578.478L1003.35 586.503H1003.39L1006.31 578.478C1006.42 578.163 1006.59 578.04 1006.89 578.04C1007.25 578.04 1007.51 578.266 1007.51 578.573C1007.51 578.669 1007.48 578.785 1007.43 578.915L1004.12 587.535C1003.96 587.945 1003.76 588.096 1003.37 588.096ZM1012.88 588.164C1010.12 588.164 1008.36 586.154 1008.36 583.017C1008.36 579.934 1010.11 577.972 1012.88 577.972C1014.68 577.972 1016.16 578.901 1016.69 580.282C1016.77 580.494 1016.79 580.651 1016.79 580.802C1016.79 581.137 1016.57 581.362 1016.23 581.362C1015.92 581.362 1015.74 581.212 1015.58 580.85C1015.08 579.708 1014.12 579.106 1012.88 579.106C1010.85 579.106 1009.62 580.569 1009.62 583.01C1009.62 585.491 1010.87 587.029 1012.88 587.029C1014.63 587.029 1015.83 585.895 1015.83 584.24V584.062H1013.53C1013.19 584.062 1012.94 583.844 1012.94 583.522C1012.94 583.201 1013.19 582.982 1013.53 582.982H1016.44C1016.82 582.982 1017.06 583.229 1017.06 583.618V583.919C1017.06 586.585 1015.51 588.164 1012.88 588.164ZM1023.36 585.84C1022.44 585.84 1021.69 585.095 1021.69 584.179C1021.69 583.263 1022.44 582.518 1023.36 582.518C1024.27 582.518 1025.02 583.263 1025.02 584.179C1025.02 585.095 1024.27 585.84 1023.36 585.84ZM1032.6 588.096C1032.23 588.096 1032.02 587.911 1031.91 587.508L1029.49 578.942C1029.45 578.792 1029.44 578.71 1029.44 578.601C1029.44 578.272 1029.69 578.04 1030.05 578.04C1030.37 578.04 1030.57 578.218 1030.66 578.532L1032.6 586.188H1032.65L1034.73 578.73C1034.87 578.238 1035.09 578.04 1035.5 578.04C1035.91 578.04 1036.12 578.238 1036.25 578.703L1038.34 586.188H1038.39L1040.34 578.532C1040.42 578.211 1040.63 578.04 1040.94 578.04C1041.3 578.04 1041.55 578.272 1041.55 578.601C1041.55 578.71 1041.54 578.792 1041.5 578.942L1039.08 587.508C1038.97 587.911 1038.76 588.096 1038.39 588.096C1038.01 588.096 1037.81 587.925 1037.68 587.515L1035.53 580.173H1035.46L1033.31 587.515C1033.19 587.925 1032.98 588.096 1032.6 588.096ZM1043.54 588C1043.16 588 1042.92 587.754 1042.92 587.364V578.771C1042.92 578.382 1043.16 578.136 1043.54 578.136H1048.55C1048.89 578.136 1049.13 578.361 1049.13 578.689C1049.13 579.018 1048.89 579.243 1048.55 579.243H1044.15V582.408H1048.3C1048.64 582.408 1048.88 582.627 1048.88 582.955C1048.88 583.276 1048.64 583.502 1048.3 583.502H1044.15V586.893H1048.55C1048.89 586.893 1049.13 587.118 1049.13 587.446C1049.13 587.774 1048.89 588 1048.55 588H1043.54ZM1051.27 588C1050.9 588 1050.66 587.754 1050.66 587.364V578.771C1050.66 578.382 1050.9 578.136 1051.27 578.136H1054.4C1056.09 578.136 1057.23 579.12 1057.23 580.597C1057.23 581.622 1056.48 582.579 1055.53 582.75V582.805C1056.87 582.976 1057.73 583.919 1057.73 585.231C1057.73 586.968 1056.48 588 1054.38 588H1051.27ZM1051.89 582.388H1053.73C1055.19 582.388 1055.98 581.807 1055.98 580.74C1055.98 579.763 1055.31 579.223 1054.12 579.223H1051.89V582.388ZM1051.89 586.913H1054.2C1055.68 586.913 1056.46 586.312 1056.46 585.17C1056.46 584.028 1055.66 583.447 1054.08 583.447H1051.89V586.913ZM1065.23 588.164C1063.37 588.164 1062.05 587.33 1061.68 586.141C1061.64 586.004 1061.62 585.854 1061.62 585.71C1061.62 585.32 1061.83 585.074 1062.18 585.074C1062.49 585.074 1062.68 585.231 1062.78 585.56C1063.08 586.578 1064.05 587.057 1065.29 587.057C1066.63 587.057 1067.6 586.353 1067.6 585.382C1067.6 584.555 1067.06 584.008 1065.69 583.707L1064.6 583.468C1062.62 583.037 1061.77 582.142 1061.77 580.74C1061.77 579.113 1063.2 577.972 1065.25 577.972C1066.89 577.972 1068.22 578.799 1068.58 580.132C1068.6 580.207 1068.61 580.31 1068.61 580.439C1068.61 580.774 1068.38 580.993 1068.05 580.993C1067.73 580.993 1067.54 580.829 1067.43 580.515C1067.09 579.517 1066.28 579.079 1065.21 579.079C1063.98 579.079 1063.03 579.681 1063.03 580.686C1063.03 581.465 1063.56 581.998 1064.9 582.292L1066 582.531C1068.06 582.982 1068.87 583.803 1068.87 585.197C1068.87 587.022 1067.43 588.164 1065.23 588.164ZM1073.42 588.096C1073.04 588.096 1072.8 587.85 1072.8 587.46V579.243H1070.17C1069.83 579.243 1069.59 579.018 1069.59 578.689C1069.59 578.361 1069.83 578.136 1070.17 578.136H1076.66C1077 578.136 1077.24 578.361 1077.24 578.689C1077.24 579.018 1077 579.243 1076.66 579.243H1074.03V587.46C1074.03 587.85 1073.79 588.096 1073.42 588.096ZM1077.11 588.096C1076.75 588.096 1076.49 587.87 1076.49 587.556C1076.49 587.467 1076.51 587.364 1076.57 587.214L1079.74 578.635C1079.89 578.231 1080.14 578.04 1080.54 578.04C1080.92 578.04 1081.17 578.225 1081.32 578.628L1084.5 587.214C1084.55 587.364 1084.57 587.467 1084.57 587.556C1084.57 587.87 1084.31 588.096 1083.96 588.096C1083.65 588.096 1083.47 587.952 1083.35 587.624L1082.48 585.177H1078.58L1077.71 587.624C1077.59 587.952 1077.41 588.096 1077.11 588.096ZM1078.93 584.131H1082.13L1080.55 579.633H1080.51L1078.93 584.131ZM1086.51 588.096C1086.14 588.096 1085.9 587.85 1085.9 587.46V578.758C1085.9 578.327 1086.18 578.04 1086.61 578.04C1086.94 578.04 1087.1 578.136 1087.32 578.45L1092.5 585.881H1092.56V578.676C1092.56 578.286 1092.79 578.04 1093.17 578.04C1093.55 578.04 1093.78 578.286 1093.78 578.676V587.426C1093.78 587.843 1093.52 588.096 1093.08 588.096C1092.75 588.096 1092.59 588.007 1092.37 587.692L1087.18 580.282H1087.12V587.46C1087.12 587.85 1086.89 588.096 1086.51 588.096ZM1096.31 588C1095.93 588 1095.69 587.754 1095.69 587.364V578.771C1095.69 578.382 1095.93 578.136 1096.31 578.136H1099.01C1101.93 578.136 1103.66 579.961 1103.66 583.064C1103.66 586.175 1101.94 588 1099.01 588H1096.31ZM1096.92 586.893H1098.93C1101.16 586.893 1102.41 585.525 1102.41 583.078C1102.41 580.61 1101.17 579.243 1098.93 579.243H1096.92V586.893ZM1104.96 588.096C1104.6 588.096 1104.34 587.87 1104.34 587.556C1104.34 587.467 1104.36 587.364 1104.42 587.214L1107.59 578.635C1107.74 578.231 1107.99 578.04 1108.39 578.04C1108.77 578.04 1109.02 578.225 1109.17 578.628L1112.35 587.214C1112.4 587.364 1112.42 587.467 1112.42 587.556C1112.42 587.87 1112.16 588.096 1111.81 588.096C1111.5 588.096 1111.32 587.952 1111.2 587.624L1110.33 585.177H1106.43L1105.56 587.624C1105.44 587.952 1105.26 588.096 1104.96 588.096ZM1106.78 584.131H1109.98L1108.4 579.633H1108.36L1106.78 584.131ZM1114.37 588.123C1114 588.123 1113.75 587.87 1113.75 587.487V578.771C1113.75 578.382 1113.99 578.136 1114.37 578.136H1117.45C1119.35 578.136 1120.6 579.298 1120.6 581.075C1120.6 582.449 1119.85 583.516 1118.61 583.905L1120.42 587.125C1120.51 587.296 1120.55 587.419 1120.55 587.556C1120.55 587.877 1120.28 588.123 1119.92 588.123C1119.64 588.123 1119.48 588.021 1119.32 587.727L1117.34 584.097H1114.98V587.487C1114.98 587.87 1114.74 588.123 1114.37 588.123ZM1114.98 583.01H1117.34C1118.61 583.01 1119.33 582.326 1119.33 581.116C1119.33 579.934 1118.56 579.229 1117.29 579.229H1114.98V583.01ZM1122.76 588C1122.39 588 1122.15 587.754 1122.15 587.364V578.771C1122.15 578.382 1122.39 578.136 1122.76 578.136H1125.46C1128.39 578.136 1130.12 579.961 1130.12 583.064C1130.12 586.175 1128.4 588 1125.46 588H1122.76ZM1123.38 586.893H1125.38C1127.62 586.893 1128.86 585.525 1128.86 583.078C1128.86 580.61 1127.62 579.243 1125.38 579.243H1123.38V586.893ZM1134.88 588.164C1133.03 588.164 1131.71 587.33 1131.34 586.141C1131.3 586.004 1131.27 585.854 1131.27 585.71C1131.27 585.32 1131.49 585.074 1131.84 585.074C1132.15 585.074 1132.34 585.231 1132.44 585.56C1132.74 586.578 1133.71 587.057 1134.95 587.057C1136.29 587.057 1137.26 586.353 1137.26 585.382C1137.26 584.555 1136.72 584.008 1135.35 583.707L1134.25 583.468C1132.28 583.037 1131.42 582.142 1131.42 580.74C1131.42 579.113 1132.86 577.972 1134.9 577.972C1136.55 577.972 1137.88 578.799 1138.23 580.132C1138.25 580.207 1138.27 580.31 1138.27 580.439C1138.27 580.774 1138.04 580.993 1137.71 580.993C1137.39 580.993 1137.2 580.829 1137.09 580.515C1136.75 579.517 1135.94 579.079 1134.87 579.079C1133.64 579.079 1132.69 579.681 1132.69 580.686C1132.69 581.465 1133.22 581.998 1134.56 582.292L1135.66 582.531C1137.71 582.982 1138.53 583.803 1138.53 585.197C1138.53 587.022 1137.09 588.164 1134.88 588.164Z" fill="white"/>
<path d="M870.348 565.082C870.025 565.082 869.82 564.871 869.82 564.537V557.008C869.82 556.674 870.025 556.463 870.348 556.463C870.67 556.463 870.875 556.674 870.875 557.008V564.537C870.875 564.871 870.67 565.082 870.348 565.082ZM873.037 565.082C872.715 565.082 872.516 564.871 872.516 564.537V557.078C872.516 556.709 872.756 556.463 873.119 556.463C873.4 556.463 873.541 556.545 873.729 556.814L878.17 563.184H878.223V557.008C878.223 556.674 878.422 556.463 878.744 556.463C879.066 556.463 879.266 556.674 879.266 557.008V564.508C879.266 564.865 879.043 565.082 878.668 565.082C878.381 565.082 878.246 565.006 878.059 564.736L873.611 558.385H873.559V564.537C873.559 564.871 873.359 565.082 873.037 565.082ZM883.572 565.082C883.25 565.082 883.045 564.871 883.045 564.537V557.494H880.795C880.496 557.494 880.291 557.301 880.291 557.02C880.291 556.738 880.496 556.545 880.795 556.545H886.35C886.648 556.545 886.854 556.738 886.854 557.02C886.854 557.301 886.648 557.494 886.35 557.494H884.1V564.537C884.1 564.871 883.895 565.082 883.572 565.082ZM888.406 565C888.084 565 887.879 564.789 887.879 564.455V557.09C887.879 556.756 888.084 556.545 888.406 556.545H892.701C893 556.545 893.205 556.738 893.205 557.02C893.205 557.301 893 557.494 892.701 557.494H888.934V560.207H892.49C892.783 560.207 892.988 560.395 892.988 560.676C892.988 560.951 892.783 561.145 892.49 561.145H888.934V564.051H892.701C893 564.051 893.205 564.244 893.205 564.525C893.205 564.807 893 565 892.701 565H888.406ZM895.039 565.105C894.723 565.105 894.512 564.889 894.512 564.561V557.09C894.512 556.756 894.717 556.545 895.039 556.545H897.682C899.311 556.545 900.377 557.541 900.377 559.064C900.377 560.242 899.738 561.156 898.678 561.49L900.225 564.25C900.307 564.396 900.336 564.502 900.336 564.619C900.336 564.895 900.102 565.105 899.797 565.105C899.557 565.105 899.416 565.018 899.281 564.766L897.588 561.654H895.566V564.561C895.566 564.889 895.355 565.105 895.039 565.105ZM895.566 560.723H897.588C898.672 560.723 899.287 560.137 899.287 559.1C899.287 558.086 898.631 557.482 897.541 557.482H895.566V560.723ZM902.234 565C901.912 565 901.707 564.789 901.707 564.455V557.09C901.707 556.756 901.912 556.545 902.234 556.545H906.529C906.828 556.545 907.033 556.738 907.033 557.02C907.033 557.301 906.828 557.494 906.529 557.494H902.762V560.207H906.318C906.611 560.207 906.816 560.395 906.816 560.676C906.816 560.951 906.611 561.145 906.318 561.145H902.762V564.051H906.529C906.828 564.051 907.033 564.244 907.033 564.525C907.033 564.807 906.828 565 906.529 565H902.234ZM911.111 565.141C909.523 565.141 908.393 564.426 908.076 563.406C908.041 563.289 908.018 563.16 908.018 563.037C908.018 562.703 908.205 562.492 908.504 562.492C908.768 562.492 908.932 562.627 909.014 562.908C909.271 563.781 910.104 564.191 911.17 564.191C912.318 564.191 913.15 563.588 913.15 562.756C913.15 562.047 912.682 561.578 911.51 561.32L910.572 561.115C908.879 560.746 908.146 559.979 908.146 558.777C908.146 557.383 909.377 556.404 911.129 556.404C912.541 556.404 913.678 557.113 913.982 558.256C914 558.32 914.012 558.408 914.012 558.52C914.012 558.807 913.812 558.994 913.531 558.994C913.262 558.994 913.098 558.854 913.004 558.584C912.711 557.729 912.014 557.354 911.1 557.354C910.045 557.354 909.23 557.869 909.23 558.73C909.23 559.398 909.682 559.855 910.836 560.107L911.773 560.312C913.537 560.699 914.234 561.402 914.234 562.598C914.234 564.162 913.004 565.141 911.111 565.141ZM918.131 565.082C917.809 565.082 917.604 564.871 917.604 564.537V557.494H915.354C915.055 557.494 914.85 557.301 914.85 557.02C914.85 556.738 915.055 556.545 915.354 556.545H920.908C921.207 556.545 921.412 556.738 921.412 557.02C921.412 557.301 921.207 557.494 920.908 557.494H918.658V564.537C918.658 564.871 918.453 565.082 918.131 565.082ZM925.209 565.141C923.621 565.141 922.49 564.426 922.174 563.406C922.139 563.289 922.115 563.16 922.115 563.037C922.115 562.703 922.303 562.492 922.602 562.492C922.865 562.492 923.029 562.627 923.111 562.908C923.369 563.781 924.201 564.191 925.268 564.191C926.416 564.191 927.248 563.588 927.248 562.756C927.248 562.047 926.779 561.578 925.607 561.32L924.67 561.115C922.977 560.746 922.244 559.979 922.244 558.777C922.244 557.383 923.475 556.404 925.227 556.404C926.639 556.404 927.775 557.113 928.08 558.256C928.098 558.32 928.109 558.408 928.109 558.52C928.109 558.807 927.91 558.994 927.629 558.994C927.359 558.994 927.195 558.854 927.102 558.584C926.809 557.729 926.111 557.354 925.197 557.354C924.143 557.354 923.328 557.869 923.328 558.73C923.328 559.398 923.779 559.855 924.934 560.107L925.871 560.312C927.635 560.699 928.332 561.402 928.332 562.598C928.332 564.162 927.102 565.141 925.209 565.141Z" fill="white"/>
<path d="M69.2285 584.492C65.4141 584.492 62.3379 582.523 61.251 579.406C61.0254 578.75 60.8818 578.217 60.8818 577.458C60.8818 576.269 61.5381 575.571 62.625 575.571C63.5684 575.571 64.1426 576.084 64.4502 577.232C65.127 579.714 66.8291 581.088 69.208 581.088C72.4688 581.088 74.2324 579.14 74.2324 575.53V556.027C74.2324 554.858 74.9502 554.12 76.0781 554.12C77.2061 554.12 77.9238 554.858 77.9238 556.027V575.551C77.9238 581.17 74.6836 584.492 69.2285 584.492ZM90.3926 584.369C85.7373 584.369 83.0098 581.354 83.0098 576.515V564.21C83.0098 563.082 83.748 562.303 84.7939 562.303C85.8398 562.303 86.5781 563.082 86.5781 564.21V575.879C86.5781 579.345 88.1982 581.211 91.5 581.211C94.9658 581.211 97.0576 578.832 97.0576 575.202V564.21C97.0576 563.082 97.7959 562.303 98.8418 562.303C99.8877 562.303 100.626 563.082 100.626 564.21V582.564C100.626 583.59 99.9697 584.369 98.9443 584.369C97.9189 584.369 97.2422 583.59 97.2422 582.564V580.534H97.1602C95.8887 582.995 93.6738 584.369 90.3926 584.369ZM107.229 584.369C106.184 584.369 105.445 583.59 105.445 582.462V555.945C105.445 554.817 106.184 554.038 107.229 554.038C108.275 554.038 109.014 554.817 109.014 555.945V582.462C109.014 583.59 108.275 584.369 107.229 584.369ZM115.802 559.083C114.592 559.083 113.587 558.078 113.587 556.868C113.587 555.638 114.592 554.653 115.802 554.653C117.032 554.653 118.037 555.638 118.037 556.868C118.037 558.078 117.032 559.083 115.802 559.083ZM115.802 584.369C114.756 584.369 114.018 583.59 114.018 582.462V564.21C114.018 563.082 114.756 562.303 115.802 562.303C116.848 562.303 117.586 563.082 117.586 564.21V582.462C117.586 583.59 116.848 584.369 115.802 584.369ZM131.244 584.369C125.338 584.369 121.359 580.124 121.359 573.336C121.359 566.527 125.338 562.303 131.244 562.303C137.13 562.303 141.108 566.527 141.108 573.336C141.108 580.124 137.13 584.369 131.244 584.369ZM131.244 581.231C135.018 581.231 137.479 578.36 137.479 573.336C137.479 568.312 135.018 565.44 131.244 565.44C127.471 565.44 124.989 568.312 124.989 573.336C124.989 578.36 127.471 581.231 131.244 581.231ZM155.607 584.287C154.541 584.287 153.885 583.61 153.885 582.503V556.417C153.885 555.043 154.828 554.12 156.243 554.12C157.494 554.12 158.253 554.715 158.827 556.089L168.384 579.099H168.548L178.084 556.089C178.658 554.735 179.458 554.12 180.729 554.12C182.124 554.12 183.047 555.022 183.047 556.417V582.503C183.047 583.61 182.391 584.287 181.324 584.287C180.258 584.287 179.602 583.61 179.602 582.503V561.195H179.458L170.681 582.195C170.209 583.303 169.532 583.795 168.466 583.795C167.399 583.795 166.702 583.303 166.251 582.236L157.474 561.195H157.33V582.503C157.33 583.61 156.674 584.287 155.607 584.287ZM197.177 584.369C190.881 584.369 187.189 580.309 187.189 573.418C187.189 566.691 190.983 562.303 196.869 562.303C202.324 562.303 206.159 566.384 206.159 572.229C206.159 573.521 205.421 574.3 204.19 574.3H190.86C190.86 578.606 193.219 581.272 197.033 581.272C199.576 581.272 201.135 580.37 202.796 577.95C203.165 577.438 203.575 577.232 204.129 577.232C205.072 577.232 205.708 577.848 205.708 578.791C205.708 579.078 205.605 579.447 205.441 579.837C204.067 582.729 201.073 584.369 197.177 584.369ZM190.881 571.511H202.468C202.386 567.819 200.109 565.399 196.808 565.399C193.485 565.399 191.106 567.84 190.881 571.511ZM211.553 584.369C210.507 584.369 209.769 583.59 209.769 582.462V564.107C209.769 563.041 210.466 562.303 211.45 562.303C212.435 562.303 213.132 563.041 213.132 564.107V566.158H213.214C213.829 563.943 215.921 562.303 218.054 562.303C218.833 562.303 219.387 562.487 219.735 562.815C220.043 563.103 220.187 563.513 220.187 564.005C220.187 564.559 220.002 564.969 219.633 565.256C219.264 565.563 218.71 565.707 217.931 565.707C214.711 565.707 213.337 568.024 213.337 570.752V582.462C213.337 583.59 212.599 584.369 211.553 584.369ZM224.698 559.083C223.488 559.083 222.483 558.078 222.483 556.868C222.483 555.638 223.488 554.653 224.698 554.653C225.929 554.653 226.934 555.638 226.934 556.868C226.934 558.078 225.929 559.083 224.698 559.083ZM224.698 584.369C223.652 584.369 222.914 583.59 222.914 582.462V564.21C222.914 563.082 223.652 562.303 224.698 562.303C225.744 562.303 226.482 563.082 226.482 564.21V582.462C226.482 583.59 225.744 584.369 224.698 584.369ZM238.705 584.369C234.911 584.369 231.938 582.667 230.912 580.001C230.789 579.693 230.748 579.427 230.748 579.16C230.748 578.217 231.445 577.684 232.368 577.684C233.004 577.684 233.517 578.012 233.927 578.75C234.993 580.616 236.265 581.457 238.992 581.457C241.72 581.457 243.565 580.268 243.565 578.278C243.565 576.74 242.684 575.92 240.284 575.325L237.023 574.505C232.901 573.479 230.912 571.531 230.912 568.537C230.912 564.825 234.173 562.303 238.992 562.303C242.499 562.303 245.616 564.271 246.17 566.835C246.211 567.04 246.231 567.204 246.231 567.368C246.231 568.209 245.698 568.763 244.837 568.763C244.14 568.763 243.647 568.537 243.258 567.799C242.335 566.015 240.961 565.235 238.787 565.235C236.224 565.235 234.439 566.527 234.439 568.353C234.439 569.829 235.588 570.854 237.926 571.429L241.104 572.208C245.555 573.295 247.195 574.854 247.195 577.991C247.195 581.806 243.771 584.369 238.705 584.369ZM252.835 559.083C251.625 559.083 250.62 558.078 250.62 556.868C250.62 555.638 251.625 554.653 252.835 554.653C254.065 554.653 255.07 555.638 255.07 556.868C255.07 558.078 254.065 559.083 252.835 559.083ZM252.835 584.369C251.789 584.369 251.051 583.59 251.051 582.462V564.21C251.051 563.082 251.789 562.303 252.835 562.303C253.881 562.303 254.619 563.082 254.619 564.21V582.462C254.619 583.59 253.881 584.369 252.835 584.369ZM268.277 584.369C262.371 584.369 258.393 580.124 258.393 573.336C258.393 566.527 262.371 562.303 268.277 562.303C274.163 562.303 278.142 566.527 278.142 573.336C278.142 580.124 274.163 584.369 268.277 584.369ZM268.277 581.231C272.051 581.231 274.512 578.36 274.512 573.336C274.512 568.312 272.051 565.44 268.277 565.44C264.504 565.44 262.022 568.312 262.022 573.336C262.022 578.36 264.504 581.231 268.277 581.231Z" fill="white"/>
</svg>
